<svg width="32" height="32" viewBox="0 0 32 32" fill="none" xmlns="http://www.w3.org/2000/svg">
    <!-- MultiChatBot Favicon -->
    <rect width="32" height="32" rx="6" fill="#0471F0"/>
    <path d="M8 12C8 10.8954 8.89543 10 10 10H14C15.1046 10 16 10.8954 16 12V16C16 17.1046 15.1046 18 14 18H10C8.89543 18 8 17.1046 8 16V12Z" fill="white"/>
    <path d="M16 12C16 10.8954 16.8954 10 18 10H22C23.1046 10 24 10.8954 24 12V16C24 17.1046 23.1046 18 22 18H18C16.8954 18 16 17.1046 16 16V12Z" fill="white" opacity="0.8"/>
    <circle cx="12" cy="14" r="1.5" fill="#0471F0"/>
    <circle cx="20" cy="14" r="1.5" fill="#0471F0"/>
    <path d="M10 20L12 22L16 18" stroke="white" stroke-width="1.5" stroke-linecap="round" stroke-linejoin="round" fill="none"/>
    <path d="M18 20L20 22L24 18" stroke="white" stroke-width="1.5" stroke-linecap="round" stroke-linejoin="round" fill="none" opacity="0.8"/>
</svg>
